HIERARCHY
ROOT Junyuan_V1:Solving:Hips
{
	OFFSET 0.000000 0.000000 0.000000
	CHANNELS 6 Xposition Yposition Zposition Xrotation Yrotation Zrotation
	JOINT Junyuan_V1:Solving:Spine
	{
		OFFSET 0.000000 -11.587388 2.561626
		CHANNELS 6 Xposition Yposition Zposition Xrotation Yrotation Zrotation
		JOINT Junyuan_V1:Solving:Spine1
		{
			OFFSET 0.000000 -9.293384 1.638677
			CHANNELS 6 Xposition Yposition Zposition Xrotation Yrotation Zrotation
			JOINT Junyuan_V1:Solving:Spine2
			{
				OFFSET 0.000000 -9.400841 0.822469
				CHANNELS 6 Xposition Yposition Zposition Xrotation Yrotation Zrotation
				JOINT Junyuan_V1:Solving:Spine3
				{
					OFFSET 0.000000 -9.436749 0.000000
					CHANNELS 6 Xposition Yposition Zposition Xrotation Yrotation Zrotation
					JOINT Junyuan_V1:Solving:Neck
					{
						OFFSET 0.000000 -12.132965 -1.213294
						CHANNELS 6 Xposition Yposition Zposition Xrotation Yrotation Zrotation
						JOINT Junyuan_V1:Solving:Neck1
						{
							OFFSET 0.000000 -6.347839 -0.555364
							CHANNELS 6 Xposition Yposition Zposition Xrotation Yrotation Zrotation
							JOINT Junyuan_V1:Solving:Head
							{
								OFFSET 0.000000 -6.275284 -1.106502
								CHANNELS 6 Xposition Yposition Zposition Xrotation Yrotation Zrotation
								JOINT Junyuan_V1:Solving:HeadEnd
								{
									OFFSET 0.000000 -9.728081 0.000002
									CHANNELS 6 Xposition Yposition Zposition Xrotation Yrotation Zrotation
									End Site
									{
										OFFSET 0.000000 -9.728081 0.000002
									}
								}
							}
						}
					}
					JOINT Junyuan_V1:Solving:RightShoulder
					{
						OFFSET 0.000000 -8.666405 -5.270916
						CHANNELS 6 Xposition Yposition Zposition Xrotation Yrotation Zrotation
						JOINT Junyuan_V1:Solving:RightArm
						{
							OFFSET -19.077805 -0.000008 0.000000
							CHANNELS 6 Xposition Yposition Zposition Xrotation Yrotation Zrotation
							JOINT Junyuan_V1:Solving:RightForeArm
							{
								OFFSET -27.209019 -0.000008 0.000000
								CHANNELS 6 Xposition Yposition Zposition Xrotation Yrotation Zrotation
								JOINT Junyuan_V1:Solving:RightHand
								{
									OFFSET -21.734264 -0.000008 0.000000
									CHANNELS 6 Xposition Yposition Zposition Xrotation Yrotation Zrotation
									JOINT Junyuan_V1:Solving:RightHandThumb1
									{
										OFFSET -3.883522 2.884647 -2.887744
										CHANNELS 6 Xposition Yposition Zposition Xrotation Yrotation Zrotation
										End Site
										{
											OFFSET -5.627335 0.000000 -5.679366
										}
									}
									JOINT Junyuan_V1:Solving:RightHandMiddle1
									{
										OFFSET -10.356049 -0.000004 0.066385
										CHANNELS 6 Xposition Yposition Zposition Xrotation Yrotation Zrotation
										End Site
										{
											OFFSET -7.995132 -0.000004 0.000000
										}
									}
								}
							}
						}
					}
					JOINT Junyuan_V1:Solving:LeftShoulder
					{
						OFFSET 0.000000 -8.666405 -5.270916
						CHANNELS 6 Xposition Yposition Zposition Xrotation Yrotation Zrotation
						JOINT Junyuan_V1:Solving:LeftArm
						{
							OFFSET 19.077805 -0.000008 0.000000
							CHANNELS 6 Xposition Yposition Zposition Xrotation Yrotation Zrotation
							JOINT Junyuan_V1:Solving:LeftForeArm
							{
								OFFSET 27.209019 -0.000008 0.000000
								CHANNELS 6 Xposition Yposition Zposition Xrotation Yrotation Zrotation
								JOINT Junyuan_V1:Solving:LeftHand
								{
									OFFSET 21.734264 -0.000008 0.000000
									CHANNELS 6 Xposition Yposition Zposition Xrotation Yrotation Zrotation
									JOINT Junyuan_V1:Solving:LeftHandThumb1
									{
										OFFSET 3.883522 2.884647 -2.887744
										CHANNELS 6 Xposition Yposition Zposition Xrotation Yrotation Zrotation
										End Site
										{
											OFFSET 5.627335 0.000000 -5.679366
										}
									}
									JOINT Junyuan_V1:Solving:LeftHandMiddle1
									{
										OFFSET 10.356049 -0.000004 0.066385
										CHANNELS 6 Xposition Yposition Zposition Xrotation Yrotation Zrotation
										End Site
										{
											OFFSET 7.995132 -0.000004 0.000000
										}
									}
								}
							}
						}
					}
				}
			}
		}
	}
	JOINT Junyuan_V1:Solving:RightUpLeg
	{
		OFFSET -10.145194 0.000000 0.000000
		CHANNELS 6 Xposition Yposition Zposition Xrotation Yrotation Zrotation
		JOINT Junyuan_V1:Solving:RightLeg
		{
			OFFSET 0.000000 45.059078 -0.000006
			CHANNELS 6 Xposition Yposition Zposition Xrotation Yrotation Zrotation
			JOINT Junyuan_V1:Solving:RightFoot
			{
				OFFSET 0.000000 37.058613 -0.000006
				CHANNELS 6 Xposition Yposition Zposition Xrotation Yrotation Zrotation
				JOINT Junyuan_V1:Solving:RightForeFoot
				{
					OFFSET 0.000000 3.397476 -0.000000
					CHANNELS 6 Xposition Yposition Zposition Xrotation Yrotation Zrotation
					JOINT Junyuan_V1:Solving:RightToeBase
					{
						OFFSET 0.000000 0.000000 -13.305598
						CHANNELS 6 Xposition Yposition Zposition Xrotation Yrotation Zrotation
						JOINT Junyuan_V1:Solving:RightToeBaseEnd
						{
							OFFSET 0.000000 0.000000 -4.190945
							CHANNELS 6 Xposition Yposition Zposition Xrotation Yrotation Zrotation
							End Site
							{
								OFFSET 0.000000 -4.190948 0.000000
							}
						}
					}
				}
			}
		}
	}
	JOINT Junyuan_V1:Solving:LeftUpLeg
	{
		OFFSET 10.145194 0.000000 0.000000
		CHANNELS 6 Xposition Yposition Zposition Xrotation Yrotation Zrotation
		JOINT Junyuan_V1:Solving:LeftLeg
		{
			OFFSET 0.000000 45.059078 -0.000006
			CHANNELS 6 Xposition Yposition Zposition Xrotation Yrotation Zrotation
			JOINT Junyuan_V1:Solving:LeftFoot
			{
				OFFSET 0.000000 37.058613 -0.000006
				CHANNELS 6 Xposition Yposition Zposition Xrotation Yrotation Zrotation
				JOINT Junyuan_V1:Solving:LeftForeFoot
				{
					OFFSET 0.000000 3.397476 -0.000000
					CHANNELS 6 Xposition Yposition Zposition Xrotation Yrotation Zrotation
					JOINT Junyuan_V1:Solving:LeftToeBase
					{
						OFFSET 0.000000 0.000000 -13.305598
						CHANNELS 6 Xposition Yposition Zposition Xrotation Yrotation Zrotation
						JOINT Junyuan_V1:Solving:LeftToeBaseEnd
						{
							OFFSET 0.000000 0.000000 -4.652039
							CHANNELS 6 Xposition Yposition Zposition Xrotation Yrotation Zrotation
							End Site
							{
								OFFSET 0.000000 -4.652039 0.000000
							}
						}
					}
				}
			}
		}
	}
}
MOTION
Frames: 6
Frame Time: 0.041667
-43.177940 71.366074 -86.682854 51.324002 -189.830942 11.945750 -0.000003 -11.587374 2.561626 22.600531 1.874786 0.327023 -0.000000 -9.293385 1.638673 14.944444 0.511830 -1.502796 -0.000007 -9.400853 0.822457 18.815979 3.020821 5.818435 -0.000007 -9.436750 0.000006 -2.334279 -0.676764 3.027182 -0.000003 -12.132967 -1.213313 -0.230661 1.038119 -6.368776 0.000010 -6.347840 -0.555362 -12.020928 -12.316705 14.611709 0.000005 -6.275305 -1.106497 -5.171952 -1.178224 1.658331 0.000007 -9.728073 0.000001 -0.000000 -0.000001 0.000002 -0.000002 -8.666409 -5.270924 -0.000004 6.962375 11.169384 -19.077806 -0.000006 0.000003 -37.201694 -54.111183 -101.895692 -27.209013 -0.000015 -0.000006 119.314348 -87.736683 119.333527 -21.734251 0.000007 0.000006 -1.012233 -5.087621 -11.268058 -3.883502 2.884675 -2.887763 -0.000004 0.000005 -0.000003 -10.356036 0.000015 0.066379 -0.000006 -0.000004 -0.000003 -0.000005 -8.666412 -5.270925 -0.000011 -17.810149 -15.895705 19.077785 -0.000013 -0.000011 -34.096195 62.774247 93.978383 27.209013 -0.000008 -0.000016 157.131234 61.700746 -159.626780 21.734249 0.000001 -0.000013 -0.217914 9.062078 1.383296 3.883520 2.884640 -2.887757 0.000001 0.000007 -0.000003 10.356066 -0.000004 0.066379 -0.000004 -0.000003 0.000003 -10.145203 -0.000004 0.000001 -47.354764 12.539824 1.891647 -0.000008 45.059093 -0.000005 0.487079 0.000000 -0.000000 -0.000005 37.058601 -0.000003 11.080137 -3.196630 4.745978 -0.000006 3.397476 0.000000 0.000000 -0.000001 0.000001 0.000006 0.000004 -13.305597 6.243573 0.000000 0.000000 -0.000001 0.000008 -4.190948 0.000001 -0.000000 0.000001 10.145189 -0.000002 -0.000001 -47.485036 -13.513515 -5.928010 -0.000007 45.059086 -0.000019 0.684606 -0.000003 -0.000000 0.000007 37.058613 -0.000001 1.844998 -10.225077 12.829605 0.000014 3.397476 -0.000006 -0.000000 -0.000005 0.000001 -0.000007 0.000014 -13.305595 18.088569 -0.000005 0.000004 0.000008 0.000001 -4.652053 0.000004 0.000009 -0.000002 
-43.316483 71.326248 -86.718697 51.592732 -189.552311 11.161234 -0.000015 -11.587363 2.561637 22.517802 1.625580 0.875946 -0.000004 -9.293394 1.638677 15.008629 0.427391 -0.942291 0.000006 -9.400847 0.822481 19.753899 2.813233 5.874848 0.000001 -9.436737 -0.000006 -1.825873 -0.747383 2.098666 -0.000000 -12.132955 -1.213284 -1.089132 1.434878 -5.789214 -0.000003 -6.347839 -0.555371 -11.869888 -11.988719 14.303451 -0.000003 -6.275308 -1.106503 -5.203319 -1.217090 1.851159 -0.000003 -9.728073 -0.000002 0.000001 0.000001 -0.000005 0.000002 -8.666401 -5.270896 -0.000003 7.698757 11.682444 -19.077797 -0.000006 0.000011 -37.996701 -53.851933 -101.766533 -27.209026 -0.000011 -0.000010 127.695277 -87.844859 127.715303 -21.734253 0.000010 0.000005 -1.000007 -5.038032 -11.241956 -3.883499 2.884665 -2.887765 0.000007 -0.000007 0.000000 -10.356053 -0.000004 0.066372 0.000001 -0.000008 -0.000006 -0.000004 -8.666409 -5.270897 -0.000008 -17.155171 -15.668912 19.077806 0.000009 0.000008 -35.424359 62.484442 94.850516 27.209009 -0.000014 -0.000002 157.209412 61.814810 -159.678048 21.734257 -0.000019 0.000000 -0.210958 9.054630 1.340244 3.883536 2.884652 -2.887739 0.000002 0.000005 -0.000001 10.356062 -0.000002 0.066396 0.000006 0.000003 -0.000002 -10.145203 0.000024 0.000006 -47.269858 11.810223 2.255384 -0.000004 45.059074 -0.000005 0.509379 -0.000000 -0.000000 0.000001 37.058605 -0.000003 11.061051 -3.270017 4.606827 -0.000005 3.397484 -0.000001 0.000000 0.000000 0.000002 -0.000003 0.000010 -13.305603 6.193035 0.000001 0.000002 -0.000011 0.000001 -4.190946 0.000002 -0.000000 -0.000001 10.145185 0.000023 0.000017 -46.817993 -14.310368 -5.525880 -0.000004 45.059082 0.000000 0.176665 -0.000008 0.000000 0.000016 37.058594 -0.000001 2.246127 -10.102254 12.627245 0.000001 3.397476 0.000003 0.000000 0.000007 0.000000 -0.000011 -0.000013 -13.305600 17.800100 -0.000000 -0.000000 -0.000003 0.000023 -4.652035 0.000001 0.000008 -0.000003 
-43.372383 71.286469 -86.730667 51.748399 -189.924038 11.352327 -0.000004 -11.587385 2.561617 22.711035 1.626407 0.426920 0.000008 -9.293384 1.638659 15.846152 0.481624 -1.212960 0.000003 -9.400837 0.822472 19.799935 3.047017 6.001797 -0.000010 -9.436732 -0.000010 -2.433390 -0.747166 2.303683 0.000005 -12.132967 -1.213308 -0.743087 1.552488 -6.190663 0.000003 -6.347844 -0.555383 -12.054658 -12.025309 14.686549 0.000007 -6.275300 -1.106520 -5.247887 -1.210449 1.829530 0.000010 -9.728081 0.000013 -0.000001 -0.000001 0.000003 -0.000005 -8.666405 -5.270919 -0.000004 7.897014 11.471208 -19.077797 -0.000002 -0.000004 -37.813112 -53.874907 -101.732287 -27.209024 -0.000033 -0.000018 127.777868 -87.750473 127.799642 -21.734272 -0.000003 0.000002 -1.003174 -5.013948 -11.329343 -3.883530 2.884658 -2.887751 0.000001 -0.000002 0.000000 -10.356056 -0.000001 0.066389 -0.000006 -0.000003 -0.000000 -0.000012 -8.666416 -5.270918 -0.000006 -17.075359 -15.712485 19.077805 0.000011 0.000007 -35.286120 62.534726 94.803545 27.209007 -0.000018 -0.000012 156.952105 61.787749 -159.448089 21.734228 0.000007 -0.000002 -0.225214 9.041267 1.432847 3.883517 2.884658 -2.887754 0.000002 0.000007 -0.000006 10.356059 -0.000011 0.066384 0.000003 0.000002 -0.000006 -10.145190 -0.000000 0.000023 -46.892039 12.146317 2.371318 0.000003 45.059055 -0.000003 0.317074 -0.000000 0.000000 -0.000000 37.058598 -0.000001 11.036884 -3.232431 4.473335 -0.000004 3.397476 -0.000002 -0.000000 0.000000 0.000001 -0.000002 0.000004 -13.305600 6.187259 0.000001 0.000001 -0.000008 -0.000007 -4.190952 0.000001 0.000002 -0.000001 10.145185 0.000008 0.000005 -46.488989 -13.908768 -5.384094 -0.000006 45.059090 -0.000011 0.000777 -0.000000 0.000000 0.000015 37.058613 -0.000012 2.413914 -10.078569 12.578491 -0.000000 3.397476 -0.000004 0.000000 0.000001 -0.000001 -0.000017 0.000015 -13.305588 17.721500 0.000005 -0.000003 0.000012 0.000001 -4.652031 0.000004 0.000006 -0.000000 
-43.199928 71.560570 -86.677406 50.710968 -189.499364 11.592600 -0.000004 -11.587385 2.561611 22.431849 1.799196 0.470687 0.000007 -9.293374 1.638673 15.478202 0.478339 -1.269459 -0.000001 -9.400842 0.822481 19.231467 3.007283 6.165609 0.000000 -9.436753 -0.000002 -2.445058 -0.759310 2.582597 -0.000006 -12.132964 -1.213278 -0.385983 1.430052 -6.455843 0.000001 -6.347839 -0.555344 -11.891376 -12.217410 14.876270 0.000007 -6.275290 -1.106492 -5.198840 -1.186515 1.703839 -0.000000 -9.728073 0.000005 0.000001 0.000001 -0.000000 -0.000009 -8.666409 -5.270894 -0.000005 7.698123 11.274127 -19.077805 0.000007 -0.000005 -37.580268 -53.957033 -102.081166 -27.209019 -0.000017 -0.000011 125.613941 -87.662575 125.636713 -21.734251 -0.000028 -0.000011 -1.005620 -5.030052 -11.320985 -3.883526 2.884650 -2.887755 0.000002 0.000002 0.000005 -10.356064 0.000002 0.066379 -0.000001 -0.000002 -0.000000 -0.000017 -8.666416 -5.270895 -0.000008 -17.428766 -15.871983 19.077820 0.000003 0.000015 -34.567389 62.695536 94.404115 27.208998 -0.000010 -0.000016 157.158049 61.711114 -159.649361 21.734247 0.000001 0.000006 -0.227235 9.050005 1.444296 3.883489 2.884661 -2.887775 -0.000000 0.000005 -0.000003 10.356033 -0.000006 0.066384 -0.000000 0.000003 -0.000000 -10.145195 0.000008 -0.000010 -48.279155 11.989717 2.125539 0.000002 45.059071 -0.000002 0.591751 0.000000 0.000000 0.000003 37.058613 -0.000016 11.202045 -3.198115 4.746939 -0.000002 3.397476 -0.000005 0.000000 -0.000001 0.000000 -0.000010 0.000005 -13.305607 6.041582 0.000001 -0.000002 -0.000003 -0.000000 -4.190951 -0.000001 0.000000 -0.000001 10.145176 -0.000004 -0.000013 -47.955270 -13.952684 -5.684763 0.000022 45.059090 -0.000013 0.258042 -0.000004 -0.000000 0.000007 37.058601 -0.000014 2.309744 -10.172319 12.773652 0.000012 3.397477 0.000002 -0.000000 0.000001 0.000004 0.000000 -0.000005 -13.305601 17.890111 0.000009 -0.000002 0.000011 0.000000 -4.652049 0.000001 0.000010 -0.000002 
-43.048576 71.696541 -86.627296 50.065112 -189.339291 12.050650 0.000008 -11.587391 2.561643 22.167960 2.044815 0.399363 0.000003 -9.293378 1.638670 15.229006 0.494250 -1.453483 0.000005 -9.400841 0.822473 19.362137 3.036781 6.101084 0.000001 -9.436738 0.000006 -2.672621 -0.763267 2.779914 0.000003 -12.132957 -1.213307 0.017965 1.187106 -6.313038 0.000004 -6.347838 -0.555379 -11.891293 -12.435054 14.912504 0.000002 -6.275291 -1.106491 -5.156533 -1.153551 1.538361 -0.000013 -9.728073 0.000008 -0.000000 0.000002 -0.000005 0.000008 -8.666397 -5.270934 -0.000002 7.290977 11.373702 -19.077806 -0.000005 0.000011 -37.556038 -53.913183 -102.398476 -27.209023 -0.000007 -0.000007 123.436640 -87.622441 123.459576 -21.734249 -0.000004 -0.000016 -1.022466 -5.090908 -11.371945 -3.883509 2.884636 -2.887760 -0.000000 -0.000007 0.000006 -10.356048 -0.000011 0.066386 -0.000001 0.000006 0.000001 0.000002 -8.666405 -5.270935 -0.000007 -17.763218 -15.818669 19.077810 0.000018 0.000009 -33.883124 62.695795 93.977106 27.209009 -0.000008 0.000004 157.348256 61.638332 -159.835360 21.734213 -0.000006 -0.000008 -0.224145 9.050691 1.424577 3.883515 2.884625 -2.887752 0.000000 0.000002 0.000001 10.356069 -0.000023 0.066390 0.000003 0.000004 -0.000003 -10.145183 0.000000 0.000016 -48.969646 12.223984 1.793579 -0.000008 45.059074 -0.000020 0.618303 -0.000000 0.000000 -0.000000 37.058624 -0.000016 11.309763 -3.189186 4.908387 -0.000009 3.397484 0.000001 -0.000000 -0.000000 0.000000 -0.000004 0.000009 -13.305596 5.969586 0.000001 0.000000 -0.000003 0.000000 -4.190941 0.000001 0.000000 -0.000001 10.145203 -0.000008 0.000013 -48.906053 -13.688733 -6.031436 0.000015 45.059082 -0.000011 0.412037 -0.000005 -0.000001 -0.000004 37.058598 -0.000001 2.098872 -10.328192 13.077886 0.000016 3.397476 -0.000009 0.000001 0.000006 0.000001 -0.000018 -0.000006 -13.305610 18.226611 0.000003 -0.000004 0.000012 0.000000 -4.652041 0.000001 0.000010 -0.000001 
-42.965252 71.776154 -86.605789 49.790395 -189.273285 12.212035 -0.000005 -11.587381 2.561659 22.165651 2.131618 0.370656 -0.000003 -9.293365 1.638669 15.320878 0.520600 -1.493387 0.000007 -9.400830 0.822465 19.369585 3.232290 6.069524 -0.000004 -9.436748 0.000027 -2.929449 -0.685163 2.794513 -0.000008 -12.132970 -1.213316 0.383902 0.964814 -6.101686 0.000003 -6.347841 -0.555361 -11.930303 -12.609880 14.837073 -0.000007 -6.275288 -1.106489 -5.122346 -1.132578 1.429640 -0.000007 -9.728088 0.000005 0.000000 0.000001 -0.000006 -0.000004 -8.666409 -5.270928 -0.000004 6.858330 11.494045 -19.077820 -0.000002 0.000005 -37.590769 -53.852043 -102.722978 -27.209021 -0.000008 -0.000011 122.348045 -87.660833 122.369751 -21.734253 -0.000036 0.000006 -1.039694 -5.213006 -11.295529 -3.883527 2.884653 -2.887743 -0.000003 -0.000009 0.000003 -10.356063 -0.000016 0.066393 0.000001 0.000003 0.000001 -0.000004 -8.666416 -5.270928 -0.000009 -18.000291 -15.767577 19.077799 0.000006 -0.000004 -33.198572 62.637472 93.519749 27.209019 -0.000007 -0.000013 157.641763 61.558596 -160.116286 21.734238 -0.000006 -0.000002 -0.222541 9.029513 1.417716 3.883540 2.884641 -2.887758 -0.000008 0.000010 -0.000006 10.356058 -0.000010 0.066375 -0.000004 0.000001 -0.000007 -10.145205 0.000014 0.000023 -49.272237 12.308292 1.669303 0.000003 45.059082 -0.000016 0.604006 -0.000000 -0.000000 0.000003 37.058617 -0.000010 11.368588 -3.196485 4.948117 -0.000001 3.397476 0.000011 -0.000000 -0.000001 -0.000001 -0.000012 0.000004 -13.305594 5.935013 0.000001 -0.000000 -0.000006 0.000000 -4.190947 0.000001 0.000000 -0.000001 10.145183 0.000004 0.000025 -49.283322 -13.614092 -6.164075 -0.000005 45.059082 -0.000005 0.408426 -0.000005 0.000000 -0.000004 37.058620 -0.000003 2.079783 -10.289162 13.157921 0.000001 3.397476 0.000015 -0.000000 -0.000002 0.000001 0.000008 -0.000015 -13.305606 18.303821 0.000007 0.000000 0.000009 0.000008 -4.652030 0.000001 0.000006 -0.000001 
